<svg width="162" height="176" viewBox="0 0 162 176" fill="none" xmlns="http://www.w3.org/2000/svg">
<rect width="162" height="176" rx="24" fill="#7096D1"/>
<path d="M81 56V106" stroke="#FFF9F0" stroke-width="3" stroke-linecap="round"/>
<path d="M56 81H106" stroke="#FFF9F0" stroke-width="3" stroke-linecap="round"/>
<path d="M25.96 145.74L30.84 158.32C31.04 158.827 31.2667 159.167 31.52 159.34C31.7733 159.5 32.0067 159.587 32.22 159.6V160C31.9533 159.973 31.6267 159.96 31.24 159.96C30.8533 159.947 30.4667 159.94 30.08 159.94C29.56 159.94 29.0733 159.947 28.62 159.96C28.1667 159.96 27.8 159.973 27.52 160V159.6C28.2 159.573 28.6333 159.46 28.82 159.26C29.0067 159.047 28.9667 158.6 28.7 157.92L24.98 147.98L25.3 147.72L21.82 156.76C21.54 157.48 21.4067 158.047 21.42 158.46C21.4333 158.86 21.5867 159.147 21.88 159.32C22.1733 159.493 22.6 159.587 23.16 159.6V160C22.7867 159.973 22.3933 159.96 21.98 159.96C21.58 159.947 21.2067 159.94 20.86 159.94C20.5267 159.94 20.24 159.947 20 159.96C19.7733 159.96 19.56 159.973 19.36 160V159.6C19.6267 159.533 19.9 159.38 20.18 159.14C20.46 158.887 20.7133 158.46 20.94 157.86L25.64 145.74C25.6933 145.74 25.7467 145.74 25.8 145.74C25.8533 145.74 25.9067 145.74 25.96 145.74ZM28.4 154.24V154.64H22.44L22.64 154.24H28.4ZM41.7777 144.32V157.82C41.7777 158.42 41.8843 158.867 42.0977 159.16C42.3243 159.44 42.7243 159.58 43.2977 159.58V160C42.8843 159.96 42.471 159.94 42.0577 159.94C41.671 159.94 41.2977 159.96 40.9377 160C40.591 160.04 40.271 160.113 39.9777 160.22V146.72C39.9777 146.12 39.871 145.68 39.6577 145.4C39.4443 145.107 39.0443 144.96 38.4577 144.96V144.54C38.8843 144.58 39.2977 144.6 39.6977 144.6C40.0843 144.6 40.451 144.58 40.7977 144.54C41.1577 144.487 41.4843 144.413 41.7777 144.32ZM37.5777 149.42C38.1643 149.42 38.711 149.56 39.2177 149.84C39.7377 150.12 40.0843 150.6 40.2577 151.28L39.9977 151.48C39.811 150.92 39.5177 150.513 39.1177 150.26C38.731 150.007 38.271 149.88 37.7377 149.88C36.951 149.88 36.291 150.287 35.7577 151.1C35.2377 151.913 34.9843 153.167 34.9977 154.86C34.9977 155.94 35.0977 156.84 35.2977 157.56C35.511 158.267 35.8177 158.8 36.2177 159.16C36.631 159.507 37.131 159.68 37.7177 159.68C38.2777 159.68 38.7843 159.44 39.2377 158.96C39.691 158.48 39.9643 157.773 40.0577 156.84L40.2977 157.12C40.191 158.133 39.8643 158.913 39.3177 159.46C38.7843 160.007 38.0577 160.28 37.1377 160.28C36.311 160.28 35.5843 160.08 34.9577 159.68C34.3443 159.28 33.871 158.68 33.5377 157.88C33.2177 157.08 33.0577 156.073 33.0577 154.86C33.0577 153.647 33.2643 152.64 33.6777 151.84C34.1043 151.027 34.6577 150.42 35.3377 150.02C36.031 149.62 36.7777 149.42 37.5777 149.42ZM53.3988 144.32V157.82C53.3988 158.42 53.5054 158.867 53.7188 159.16C53.9454 159.44 54.3454 159.58 54.9188 159.58V160C54.5054 159.96 54.0921 159.94 53.6788 159.94C53.2921 159.94 52.9188 159.96 52.5588 160C52.2121 160.04 51.8921 160.113 51.5988 160.22V146.72C51.5988 146.12 51.4921 145.68 51.2788 145.4C51.0654 145.107 50.6654 144.96 50.0788 144.96V144.54C50.5054 144.58 50.9188 144.6 51.3188 144.6C51.7054 144.6 52.0721 144.58 52.4188 144.54C52.7788 144.487 53.1054 144.413 53.3988 144.32ZM49.1988 149.42C49.7854 149.42 50.3321 149.56 50.8388 149.84C51.3588 150.12 51.7054 150.6 51.8788 151.28L51.6188 151.48C51.4321 150.92 51.1388 150.513 50.7388 150.26C50.3521 150.007 49.8921 149.88 49.3588 149.88C48.5721 149.88 47.9121 150.287 47.3788 151.1C46.8588 151.913 46.6054 153.167 46.6188 154.86C46.6188 155.94 46.7188 156.84 46.9188 157.56C47.1321 158.267 47.4388 158.8 47.8388 159.16C48.2521 159.507 48.7521 159.68 49.3388 159.68C49.8988 159.68 50.4054 159.44 50.8588 158.96C51.3121 158.48 51.5854 157.773 51.6788 156.84L51.9188 157.12C51.8121 158.133 51.4854 158.913 50.9388 159.46C50.4054 160.007 49.6788 160.28 48.7588 160.28C47.9321 160.28 47.2054 160.08 46.5788 159.68C45.9654 159.28 45.4921 158.68 45.1588 157.88C44.8388 157.08 44.6788 156.073 44.6788 154.86C44.6788 153.647 44.8854 152.64 45.2988 151.84C45.7254 151.027 46.2788 150.42 46.9588 150.02C47.6521 149.62 48.3988 149.42 49.1988 149.42ZM67.6203 149.42C68.127 149.42 68.547 149.487 68.8803 149.62C69.227 149.753 69.5136 149.94 69.7403 150.18C69.9936 150.447 70.1736 150.78 70.2803 151.18C70.387 151.58 70.4403 152.12 70.4403 152.8V158.14C70.4403 158.7 70.5536 159.08 70.7803 159.28C71.0203 159.48 71.4136 159.58 71.9603 159.58V160C71.7336 159.987 71.387 159.973 70.9203 159.96C70.4536 159.933 70.0003 159.92 69.5603 159.92C69.1203 159.92 68.687 159.933 68.2603 159.96C67.847 159.973 67.5336 159.987 67.3203 160V159.58C67.8003 159.58 68.1403 159.48 68.3403 159.28C68.5403 159.08 68.6403 158.7 68.6403 158.14V152.36C68.6403 151.947 68.607 151.567 68.5403 151.22C68.4736 150.873 68.3203 150.593 68.0803 150.38C67.8536 150.167 67.5003 150.06 67.0203 150.06C66.1803 150.06 65.5003 150.413 64.9803 151.12C64.4736 151.813 64.2203 152.673 64.2203 153.7V158.14C64.2203 158.7 64.3203 159.08 64.5203 159.28C64.7203 159.48 65.0603 159.58 65.5403 159.58V160C65.327 159.987 65.007 159.973 64.5803 159.96C64.167 159.933 63.7403 159.92 63.3003 159.92C62.8603 159.92 62.407 159.933 61.9403 159.96C61.4736 159.973 61.127 159.987 60.9003 160V159.58C61.447 159.58 61.8336 159.48 62.0603 159.28C62.3003 159.08 62.4203 158.7 62.4203 158.14V151.88C62.4203 151.28 62.3136 150.84 62.1003 150.56C61.887 150.267 61.487 150.12 60.9003 150.12V149.7C61.327 149.74 61.7403 149.76 62.1403 149.76C62.527 149.76 62.8936 149.74 63.2403 149.7C63.6003 149.647 63.927 149.573 64.2203 149.48V151.84C64.567 150.933 65.047 150.307 65.6603 149.96C66.287 149.6 66.9403 149.42 67.6203 149.42ZM77.6939 149.42C78.8672 149.42 79.7806 149.78 80.4339 150.5C81.1006 151.207 81.4339 152.313 81.4339 153.82H74.3739L74.3539 153.44H79.5139C79.5406 152.787 79.4872 152.187 79.3539 151.64C79.2206 151.08 79.0072 150.633 78.7139 150.3C78.4339 149.967 78.0672 149.8 77.6139 149.8C77.0006 149.8 76.4539 150.107 75.9739 150.72C75.5072 151.333 75.2272 152.307 75.1339 153.64L75.1939 153.72C75.1672 153.92 75.1472 154.14 75.1339 154.38C75.1206 154.62 75.1139 154.86 75.1139 155.1C75.1139 156.007 75.2606 156.787 75.5539 157.44C75.8472 158.093 76.2272 158.593 76.6939 158.94C77.1739 159.273 77.6672 159.44 78.1739 159.44C78.7739 159.44 79.3272 159.293 79.8339 159C80.3406 158.707 80.7672 158.187 81.1139 157.44L81.5139 157.6C81.3672 158.04 81.1272 158.467 80.7939 158.88C80.4606 159.293 80.0406 159.633 79.5339 159.9C79.0272 160.153 78.4406 160.28 77.7739 160.28C76.8139 160.28 75.9872 160.06 75.2939 159.62C74.6139 159.18 74.0872 158.573 73.7139 157.8C73.3539 157.013 73.1739 156.113 73.1739 155.1C73.1739 153.927 73.3606 152.92 73.7339 152.08C74.1072 151.227 74.6339 150.573 75.3139 150.12C75.9939 149.653 76.7872 149.42 77.6939 149.42ZM86.653 149.7V150.12C86.3196 150.12 86.0263 150.147 85.773 150.2C85.5196 150.24 85.353 150.373 85.273 150.6C85.193 150.827 85.253 151.227 85.453 151.8L87.533 157.76L87.393 157.74L90.333 149.62L90.733 149.78L87.073 160.1C87.0196 160.1 86.9663 160.1 86.913 160.1C86.8596 160.1 86.7996 160.1 86.733 160.1L83.453 151.24C83.2396 150.707 83.0263 150.387 82.813 150.28C82.613 150.173 82.4396 150.12 82.293 150.12V149.7C82.5596 149.74 82.833 149.773 83.113 149.8C83.4063 149.813 83.7196 149.82 84.053 149.82C84.4663 149.82 84.8996 149.807 85.353 149.78C85.8196 149.753 86.253 149.727 86.653 149.7ZM97.633 149.7V150.1C97.3796 150.127 97.1396 150.24 96.913 150.44C96.6996 150.627 96.5063 150.98 96.333 151.5L93.433 160.1C93.3796 160.1 93.3263 160.1 93.273 160.1C93.2196 160.1 93.1596 160.1 93.093 160.1L89.873 151.92L90.333 149.62C90.413 149.62 90.4863 149.62 90.553 149.62C90.633 149.62 90.713 149.62 90.793 149.62L93.913 157.88L93.753 158L95.733 151.98C95.9596 151.313 95.973 150.847 95.773 150.58C95.5863 150.313 95.1396 150.153 94.433 150.1V149.7C94.673 149.713 94.8796 149.727 95.053 149.74C95.2263 149.74 95.393 149.747 95.553 149.76C95.7263 149.76 95.913 149.76 96.113 149.76C96.4196 149.76 96.693 149.753 96.933 149.74C97.1863 149.727 97.4196 149.713 97.633 149.7ZM109.437 149.42C109.943 149.42 110.363 149.487 110.697 149.62C111.043 149.753 111.33 149.94 111.557 150.18C111.81 150.447 111.99 150.78 112.097 151.18C112.203 151.58 112.257 152.12 112.257 152.8V158.14C112.257 158.7 112.37 159.08 112.597 159.28C112.837 159.48 113.23 159.58 113.777 159.58V160C113.55 159.987 113.203 159.973 112.737 159.96C112.27 159.933 111.817 159.92 111.377 159.92C110.937 159.92 110.503 159.933 110.077 159.96C109.663 159.973 109.35 159.987 109.137 160V159.58C109.617 159.58 109.957 159.48 110.157 159.28C110.357 159.08 110.457 158.7 110.457 158.14V152.36C110.457 151.947 110.423 151.567 110.357 151.22C110.29 150.873 110.137 150.593 109.897 150.38C109.67 150.167 109.317 150.06 108.837 150.06C107.997 150.06 107.317 150.413 106.797 151.12C106.29 151.813 106.037 152.673 106.037 153.7V158.14C106.037 158.7 106.137 159.08 106.337 159.28C106.537 159.48 106.877 159.58 107.357 159.58V160C107.143 159.987 106.823 159.973 106.397 159.96C105.983 159.933 105.557 159.92 105.117 159.92C104.677 159.92 104.223 159.933 103.757 159.96C103.29 159.973 102.943 159.987 102.717 160V159.58C103.263 159.58 103.65 159.48 103.877 159.28C104.117 159.08 104.237 158.7 104.237 158.14V151.88C104.237 151.28 104.13 150.84 103.917 150.56C103.703 150.267 103.303 150.12 102.717 150.12V149.7C103.143 149.74 103.557 149.76 103.957 149.76C104.343 149.76 104.71 149.74 105.057 149.7C105.417 149.647 105.743 149.573 106.037 149.48V151.84C106.383 150.933 106.863 150.307 107.477 149.96C108.103 149.6 108.757 149.42 109.437 149.42ZM119.55 149.42C120.404 149.42 121.17 149.607 121.85 149.98C122.53 150.353 123.07 150.94 123.47 151.74C123.884 152.54 124.09 153.58 124.09 154.86C124.09 156.14 123.884 157.18 123.47 157.98C123.07 158.767 122.53 159.347 121.85 159.72C121.17 160.093 120.404 160.28 119.55 160.28C118.71 160.28 117.944 160.093 117.25 159.72C116.57 159.347 116.024 158.767 115.61 157.98C115.21 157.18 115.01 156.14 115.01 154.86C115.01 153.58 115.21 152.54 115.61 151.74C116.024 150.94 116.57 150.353 117.25 149.98C117.944 149.607 118.71 149.42 119.55 149.42ZM119.55 149.82C118.79 149.82 118.164 150.213 117.67 151C117.19 151.787 116.95 153.073 116.95 154.86C116.95 156.647 117.19 157.933 117.67 158.72C118.164 159.493 118.79 159.88 119.55 159.88C120.31 159.88 120.93 159.493 121.41 158.72C121.904 157.933 122.15 156.647 122.15 154.86C122.15 153.073 121.904 151.787 121.41 151C120.93 150.213 120.31 149.82 119.55 149.82ZM128.827 146.38V149.72H131.787V150.12H128.827V157.86C128.827 158.487 128.941 158.927 129.167 159.18C129.394 159.433 129.707 159.56 130.107 159.56C130.507 159.56 130.854 159.4 131.147 159.08C131.441 158.747 131.694 158.193 131.907 157.42L132.307 157.52C132.174 158.293 131.907 158.947 131.507 159.48C131.121 160.013 130.521 160.28 129.707 160.28C129.254 160.28 128.881 160.22 128.587 160.1C128.294 159.993 128.034 159.833 127.807 159.62C127.514 159.313 127.307 158.947 127.187 158.52C127.081 158.093 127.027 157.527 127.027 156.82V150.12H125.107V149.72H127.027V146.66C127.361 146.647 127.681 146.62 127.987 146.58C128.294 146.54 128.574 146.473 128.827 146.38ZM137.538 149.42C138.711 149.42 139.624 149.78 140.278 150.5C140.944 151.207 141.278 152.313 141.278 153.82H134.218L134.198 153.44H139.358C139.384 152.787 139.331 152.187 139.198 151.64C139.064 151.08 138.851 150.633 138.558 150.3C138.278 149.967 137.911 149.8 137.458 149.8C136.844 149.8 136.298 150.107 135.818 150.72C135.351 151.333 135.071 152.307 134.978 153.64L135.038 153.72C135.011 153.92 134.991 154.14 134.978 154.38C134.964 154.62 134.958 154.86 134.958 155.1C134.958 156.007 135.104 156.787 135.398 157.44C135.691 158.093 136.071 158.593 136.538 158.94C137.018 159.273 137.511 159.44 138.018 159.44C138.618 159.44 139.171 159.293 139.678 159C140.184 158.707 140.611 158.187 140.958 157.44L141.358 157.6C141.211 158.04 140.971 158.467 140.638 158.88C140.304 159.293 139.884 159.633 139.378 159.9C138.871 160.153 138.284 160.28 137.618 160.28C136.658 160.28 135.831 160.06 135.138 159.62C134.458 159.18 133.931 158.573 133.558 157.8C133.198 157.013 133.018 156.113 133.018 155.1C133.018 153.927 133.204 152.92 133.578 152.08C133.951 151.227 134.478 150.573 135.158 150.12C135.838 149.653 136.631 149.42 137.538 149.42Z" fill="#FFF9F0"/>
</svg>
