<svg width="24" height="24" viewBox="0 0 24 24" fill="none" xmlns="http://www.w3.org/2000/svg">
<g clip-path="url(#clip0_337_13)">
<path d="M7.09486 1.07357C7.4909 0.906227 7.92745 0.807939 8.34454 0.707908C8.71326 0.619469 9.08179 0.53306 9.45567 0.468642C10.6449 0.263757 11.8434 0.233863 13.0455 0.309229C13.3093 0.325764 13.5731 0.358079 13.8334 0.403547C14.0573 0.442659 14.2904 0.512374 14.5186 0.506388C14.8562 0.497542 15.1894 0.366157 15.5222 0.310721C16.6924 0.115757 17.6794 0.100409 18.8379 0.384538C19.9034 0.645874 20.9623 1.23594 21.5395 2.19774C21.8522 2.71879 21.9422 3.27813 21.8804 3.87668C21.867 4.00634 21.8559 4.1421 21.8242 4.26858C21.8966 4.31137 21.9689 4.35439 22.0404 4.39867C22.6075 4.74979 22.9658 5.24329 23.118 5.89181C23.155 6.11273 23.2045 6.37683 23.157 6.5984C23.1669 6.93867 22.9176 7.40517 22.7244 7.67583C22.9042 7.80768 23.0646 7.95431 23.2064 8.12672C23.5943 8.59846 23.7674 9.17911 23.7043 9.78722C23.6408 10.3987 23.3283 10.9657 22.8492 11.3543C22.986 11.5781 23.0611 11.8454 23.102 12.1025C23.2106 12.786 23.0235 13.4493 22.6178 14.005C22.4003 14.3029 22.114 14.5581 21.8112 14.7665C20.5047 15.6655 18.715 15.7784 17.2046 15.4399C16.92 15.3761 16.6303 15.2894 16.3645 15.1686C16.201 15.0942 16.0443 14.9919 15.8711 14.9415C15.6478 14.8766 14.9635 14.8941 14.7289 14.9299L14.7251 14.9524L14.7332 14.9669C14.8971 15.2634 15.0287 15.6053 15.1644 15.9173C15.8619 17.5205 16.325 19.2472 16.1036 21.0074C16.0646 21.3172 16.0119 21.6276 15.9251 21.9279C15.7332 22.5922 15.3311 23.1297 14.7186 23.4651C14.1832 23.7582 13.4677 23.8409 12.88 23.6654C12.7929 23.6393 12.7075 23.6081 12.6234 23.5736C12.4876 23.5178 12.3578 23.4523 12.2347 23.3721C11.6539 22.9935 11.2358 22.3539 11.1841 21.6564C11.1562 21.2782 11.1974 20.8948 11.1778 20.5147C11.1574 20.1203 11.0812 19.7358 10.9639 19.3592C10.7328 18.6172 10.3332 17.9677 9.94879 17.2982L8.89125 15.4547L8.5004 14.767C8.39583 14.5789 8.29922 14.3628 8.15817 14.1998C8.02387 14.0448 7.82151 13.9461 7.66387 13.815C7.26253 13.4811 6.91645 13.0852 6.59704 12.6739C6.51501 12.5682 6.42258 12.4612 6.35878 12.3434C6.12726 12.4642 5.8283 12.5281 5.57034 12.5575C5.17092 12.6031 4.76676 12.575 4.36552 12.5745C3.80562 12.5738 3.24367 12.5865 2.68407 12.5731C2.00059 12.5568 1.3686 12.3014 0.896455 11.7999C0.616485 11.5026 0.402799 11.1124 0.324956 10.7103C0.240204 10.2724 0.280065 9.81215 0.281615 9.36829L0.283095 7.48462L0.278804 4.62726C0.275001 4.14768 0.243806 3.667 0.259051 3.18752C0.268136 2.90178 0.273804 2.60428 0.320397 2.3216C0.414014 1.75362 0.70265 1.23375 1.124 0.843625C1.26491 0.713149 1.43156 0.604792 1.60143 0.516142C2.29529 0.154047 3.03511 0.23237 3.78687 0.231226C4.21157 0.230579 4.6362 0.206849 5.06105 0.221848C5.89209 0.251185 6.51497 0.450316 7.09486 1.07357ZM16.8559 1.43465C16.4526 1.46399 16.0397 1.50208 15.646 1.59751C15.308 1.67944 14.9698 1.85963 14.6197 1.86773C14.3359 1.8743 14.0773 1.7753 13.8031 1.72385C13.5064 1.66818 13.2016 1.63679 12.9014 1.60564C11.477 1.45784 9.90445 1.64754 8.52661 2.01255C8.20219 2.09849 7.88419 2.18748 7.56928 2.3043C7.58494 2.47851 7.57884 2.65662 7.57926 2.83145L7.57969 3.68157L7.5802 6.31279L7.58123 9.10973C7.58095 9.59147 7.60748 10.1683 7.5615 10.637C7.53276 10.9301 7.43348 11.219 7.2915 11.4763C7.45219 11.6547 7.58709 11.8611 7.73714 12.0491C7.93017 12.2909 8.14345 12.5135 8.36273 12.7314C8.60822 12.9753 8.94923 13.1234 9.16364 13.3931C9.31284 13.5808 9.41404 13.8048 9.52954 14.0139C9.6712 14.2703 9.81773 14.5244 9.96319 14.7787L11.026 16.6209C11.5262 17.4914 12.0222 18.3481 12.2765 19.3286C12.4026 19.8148 12.4833 20.3184 12.4897 20.8213C12.4926 21.0528 12.4671 21.2857 12.4818 21.5169C12.5143 22.0285 12.9361 22.4466 13.4508 22.4753C13.7637 22.4928 14.0699 22.3983 14.3029 22.1864C14.7315 21.7965 14.7766 21.1656 14.8312 20.625C14.9163 19.0528 14.6049 17.7729 13.9643 16.3422C13.8956 16.1886 13.8257 16.0351 13.7514 15.8841C13.6263 15.6293 13.4753 15.3845 13.4413 15.0968C13.3916 14.6774 13.5863 14.2176 13.8977 13.9381C14.282 13.5932 14.7685 13.606 15.2521 13.596C15.4702 13.5915 15.692 13.5812 15.9097 13.5945C16.2201 13.6133 16.437 13.7743 16.7035 13.911C16.819 13.9703 16.9447 14.0166 17.0669 14.0599C18.336 14.5096 20.2286 14.4659 21.2799 13.5376C21.5599 13.2904 21.7912 12.9301 21.8151 12.5494C21.8311 12.2937 21.746 12.0134 21.6075 11.7997C21.404 11.4853 21.1819 11.3141 21.3039 10.8993C21.3386 10.7814 21.3993 10.6679 21.4904 10.584C21.6014 10.4815 21.7519 10.4274 21.8835 10.3567C22.1646 10.2057 22.3417 9.92123 22.3619 9.60445C22.378 9.35268 22.3099 9.10036 22.141 8.90915C21.9801 8.727 21.7721 8.63301 21.5367 8.58801C21.4452 8.57053 21.348 8.5589 21.26 8.52811C20.9687 8.4262 20.7812 8.14125 20.7963 7.83389C20.8051 7.65398 20.8979 7.50173 21.0299 7.38487C21.1485 7.27978 21.2927 7.21593 21.4256 7.13193C21.6683 6.97837 21.8325 6.72539 21.8505 6.43673C21.867 6.17114 21.7853 5.90409 21.6066 5.70506C21.2067 5.25979 20.5475 5.46136 20.3062 4.93983C20.2584 4.83651 20.2326 4.72453 20.2386 4.61019C20.2509 4.37717 20.4129 4.20763 20.5154 4.01025C20.7581 3.54288 20.5954 3.01265 20.2674 2.63142C19.5772 1.82922 18.4187 1.50607 17.3969 1.4349C17.2245 1.42289 17.0274 1.41372 16.8559 1.43465ZM2.58787 1.55155C2.29426 1.58232 2.01446 1.72261 1.82886 1.95426C1.67815 2.14236 1.60772 2.34518 1.58346 2.58317C1.56611 2.7534 1.57278 2.92878 1.57314 3.09978L1.57494 3.87438L1.58017 6.41475L1.57975 9.04945L1.58289 9.80592C1.5829 10.0146 1.57558 10.2229 1.59915 10.4306C1.6289 10.693 1.76948 10.9179 1.97591 11.0806C2.10543 11.1826 2.26078 11.2606 2.42345 11.2915C2.75409 11.3542 3.10483 11.3067 3.43898 11.3063C4.04161 11.3056 4.64452 11.3172 5.24709 11.3134C5.56017 11.2961 5.83711 11.2378 6.05269 10.9936C6.17194 10.8585 6.25059 10.6938 6.27098 10.5143C6.31003 10.1702 6.27862 9.69876 6.27862 9.34195L6.2804 6.98039L6.27956 4.09114L6.28495 3.0135C6.28462 2.8304 6.28926 2.64333 6.27642 2.46085C6.25697 2.18414 6.16561 1.95928 5.95153 1.77646C5.83805 1.67952 5.69915 1.59768 5.55112 1.56945C5.35181 1.53145 5.13445 1.54597 4.93186 1.54586L4.08634 1.54569L3.11137 1.54602C2.94635 1.54613 2.77373 1.53614 2.60955 1.54913C2.6023 1.5497 2.5951 1.55074 2.58787 1.55155ZM23.118 5.89181C23.1019 5.91586 23.088 5.93554 23.0841 5.96517C23.0706 6.06637 23.1133 6.35147 23.1337 6.46158C23.1363 6.47578 23.1375 6.47925 23.1411 6.49158L23.1401 6.45197C23.1522 6.50147 23.155 6.54773 23.157 6.5984C23.2045 6.37683 23.155 6.11273 23.118 5.89181ZM16.0942 19.6605C16.0972 19.8051 16.0859 20.4423 16.1154 20.5222L16.124 20.5161L16.1269 20.4873C16.1269 20.325 16.1504 19.7955 16.1116 19.6741L16.1061 19.7209L16.0942 19.6605ZM19.1136 15.5476C18.9299 15.5528 18.7456 15.5599 18.5618 15.5555C18.5124 15.5543 18.3819 15.5335 18.3388 15.5503C18.3327 15.5526 18.3283 15.558 18.3231 15.5618L18.3315 15.5752C18.4775 15.5749 19.0111 15.5953 19.1162 15.5667L19.1181 15.5497L19.1136 15.5476Z" fill="#081F5C"/>
<path d="M19.1135 15.5476L19.118 15.5497L19.1161 15.5667C19.011 15.5953 18.4774 15.5749 18.3313 15.5751L18.323 15.5618C18.3282 15.5579 18.3326 15.5526 18.3387 15.5503C18.3818 15.5335 18.5123 15.5543 18.5617 15.5555C18.7455 15.5599 18.9297 15.5528 19.1135 15.5476Z" fill="#081F5C" fill-opacity="0.964706"/>
<path d="M16.0942 19.6605L16.1061 19.7209L16.1116 19.6741C16.1505 19.7955 16.1269 20.325 16.1269 20.4873L16.124 20.5161L16.1154 20.5222C16.0859 20.4423 16.0972 19.8051 16.0942 19.6605Z" fill="#081F5C" fill-opacity="0.972549"/>
<path d="M23.1181 5.89182C23.1551 6.11274 23.2046 6.37683 23.1571 6.59841C23.1551 6.54774 23.1523 6.50147 23.1402 6.45197L23.1411 6.49158C23.1376 6.47925 23.1364 6.47578 23.1338 6.46158C23.1134 6.35147 23.0706 6.06638 23.0841 5.96517C23.0881 5.93555 23.1019 5.91586 23.1181 5.89182Z" fill="#081F5C" fill-opacity="0.94902"/>
</g>
<defs>
<clipPath id="clip0_337_13">
<rect width="24" height="24" fill="white"/>
</clipPath>
</defs>
</svg>
