<svg width="101" height="90" viewBox="0 0 101 90" fill="none" xmlns="http://www.w3.org/2000/svg">
<path d="M34.5666 4.84919e-05C49.7239 4.84919e-05 60.9861 3.8136 68.3531 11.4407C75.7201 18.9831 79.4035 29.8305 79.4035 43.983C79.4035 53.2203 77.583 61.3135 73.9418 68.2627C70.3854 75.1271 65.1777 80.466 58.3188 84.2796C51.4599 88.0932 43.1614 89.9999 33.4235 89.9999C32.1533 89.9999 30.4597 89.9576 28.3428 89.8728C26.2258 89.7881 24.0242 89.7457 21.7379 89.7457C19.5363 89.6609 17.504 89.6186 15.6411 89.6186C12.6774 89.6186 9.75599 89.6609 6.87695 89.7457C3.9979 89.7457 1.77824 89.8303 0 89.9998V88.1839C2.87905 88.0144 4.92936 86.9491 6.36888 86.4406C7.89308 85.9321 8.90922 84.9152 9.41728 83.3898C9.92535 81.8643 10.1794 79.5762 10.1794 76.5254V13.4746C10.1794 10.339 9.92535 8.05088 9.41728 6.61021C8.90922 5.08479 7.89308 4.06784 6.36888 3.55937C4.92936 2.96614 2.87905 2.00961 0 1.92487L4.66415e-05 0.381399C1.77828 0.466143 3.9979 0.21191 6.87695 0.381399C9.75599 0.466143 12.5927 0.466143 15.3871 0.381399C18.3508 0.296654 21.6956 0.21191 25.4214 0.127165C29.1472 0.0424207 32.1956 4.84919e-05 34.5666 4.84919e-05ZM31.3912 2.28817C27.496 2.28817 24.9557 3.00851 23.7702 4.44919C22.5847 5.88987 21.9919 8.8136 21.9919 13.2204V76.7796C21.9919 81.1864 22.5847 84.1101 23.7702 85.5508C25.0403 86.9915 27.623 87.7118 31.5182 87.7118C40.7481 87.7118 47.9034 86.0593 52.984 82.7542C58.0647 79.3643 61.6212 74.4491 63.6535 68.0084C65.6857 61.5678 66.7019 53.7288 66.7019 44.4915C66.7019 35 65.5587 27.161 63.2724 20.9746C61.0708 14.7034 57.3873 10.0424 52.2219 6.99156C47.1413 3.85597 40.1977 2.28817 31.3912 2.28817Z" fill="#BA9F54"/>
<path d="M55.3805 0.000117766C70.5378 0.000117766 81.7999 3.81367 89.1669 11.4408C96.5339 18.9831 100.217 29.8306 100.217 43.9831C100.217 53.2204 98.3968 61.3136 94.7557 68.2627C91.1992 75.1271 85.9915 80.4661 79.1326 84.2797C72.2737 88.0932 63.9753 90 54.2373 90C52.9671 90 51.2736 89.9576 49.1566 89.8729C47.0397 89.7881 44.8381 89.7458 42.5518 89.7458C37.1977 89.9999 38.3179 89.6186 36.4549 89.6186C33.4912 89.6186 30.5698 89.661 27.6908 89.7458C24.8117 89.7458 22.422 89.5372 20.6437 89.7067L20.7049 87.4576C23.5839 87.2881 25.7432 86.9492 27.1827 86.4407C28.7069 85.9322 29.7231 84.9153 30.2311 83.3898C30.7392 81.8644 30.9932 79.5763 30.9932 76.5254V13.4747C30.9932 10.3391 30.7392 8.05095 30.2311 6.61028C29.7231 5.08486 28.7069 4.06791 27.1827 3.55944C25.7432 2.96621 23.5839 2.62723 20.7049 2.54249L20.6208 0.381468C22.399 0.466213 24.8117 0.211979 27.6908 0.381468C30.5698 0.466213 33.4961 0.19364 36.2905 0.108895C39.2542 0.0241508 42.5094 0.211979 46.2352 0.127235C49.9611 0.04249 53.0095 0.000117766 55.3805 0.000117766ZM52.205 2.28824C48.3098 2.28824 45.7695 3.00858 44.584 4.44926C43.3985 5.88994 42.8058 8.81367 42.8058 13.2204V76.7797C42.8058 81.1864 43.3985 84.1102 44.584 85.5508C45.8542 86.9915 48.4369 87.7119 52.332 87.7119C61.5619 87.7119 68.7172 86.0593 73.7979 82.7542C78.8786 79.3644 82.435 74.4492 84.4673 68.0085C86.4996 61.5678 87.5157 53.7289 87.5157 44.4916C87.5157 35.0001 86.3726 27.1611 84.0863 20.9747C81.8846 14.7035 78.2011 10.0425 73.0358 6.99163C67.9551 3.85604 61.0115 2.28824 52.205 2.28824Z" fill="#BA9F54"/>
</svg>
